<svg width="65" height="65" viewBox="0 0 65 65" fill="none" xmlns="http://www.w3.org/2000/svg">
<path d="M32.0012 18.7381H45.1536C54.006 18.7381 61.4403 26.9253 61.4403 37.3631V59.7224C61.4403 61.9278 59.8946 63.4411 58.3061 63.4411H18.8487C17.2602 63.4411 15.7145 61.9278 15.7145 59.7224V37.3631C15.7145 26.9253 23.1488 18.7381 32.0012 18.7381Z" stroke="white" stroke-width="2.5"/>
<path d="M45.9404 19.2269H31.8054C30.5042 19.2269 29.4495 18.1336 29.4495 16.7849C29.4495 15.4362 30.5042 14.3429 31.8054 14.3429H45.9404C47.2415 14.3429 48.2962 15.4362 48.2962 16.7849C48.2962 18.1336 47.2415 19.2269 45.9404 19.2269Z" fill="white"/>
<path d="M31.4383 4.80738L31.5068 4.91592L31.5959 5.00828C33.0074 6.47136 35.3152 6.47136 36.7267 5.00828L36.8571 4.8731L36.942 4.70556L38.2213 2.18189C38.6284 1.8606 39.1914 1.87694 39.5827 2.23092L41.4382 4.86099L41.4934 4.9393L41.56 5.00828C42.9714 6.47136 45.2793 6.47136 46.6908 5.00828L46.8286 4.86542L46.9154 4.68689L48.6273 1.16519C48.8177 1.01758 49.0442 0.941154 49.2722 0.941154H50.6521C51.221 0.941154 51.7579 1.43206 51.7579 2.13312V7.01705C51.7579 10.4154 49.1115 13.0929 45.9404 13.0929H31.8054C28.6343 13.0929 25.9879 10.4154 25.9879 7.01705V2.84831C25.9879 2.45959 26.1551 1.91302 26.4582 1.47165C26.7809 1.00187 27.0403 0.941154 27.0937 0.941154H28.4738C28.7197 0.941154 28.9643 1.03032 29.1637 1.20203L31.4383 4.80738Z" stroke="white" stroke-width="2.5"/>
<path d="M51.7579 41.4219C51.7579 48.8662 45.9472 54.8237 38.8729 54.8237C31.7986 54.8237 25.9879 48.8662 25.9879 41.4219C25.9879 33.9776 31.7986 28.0201 38.8729 28.0201C45.9472 28.0201 51.7579 33.9776 51.7579 41.4219Z" stroke="white" stroke-width="2.5"/>
<mask id="path-5-inside-1_43_30" fill="white">
<path d="M43.5846 38.9799C44.2351 38.9799 44.7625 38.4332 44.7625 37.7589V37.5242C44.7625 34.9606 42.7505 32.875 40.2773 32.875H40.0508V30.433C40.0508 29.7588 39.5234 29.2121 38.8729 29.2121C38.2224 29.2121 37.695 29.7588 37.695 30.433V32.875H37.4685C34.9953 32.875 32.9833 34.9606 32.9833 37.5242C32.9833 39.6615 34.3803 41.5164 36.3807 42.0347L40.7938 43.1783C41.7435 43.4243 42.4067 44.3049 42.4067 45.3196C42.4067 46.5366 41.4514 47.5268 40.2773 47.5268H37.4685C36.2944 47.5268 35.3391 46.5366 35.3391 45.3196V45.0848C35.3391 44.4105 34.8117 43.8638 34.1612 43.8638C33.5107 43.8638 32.9833 44.4105 32.9833 45.0848V45.3196C32.9833 47.8832 34.9953 49.9688 37.4685 49.9688H37.695V52.4107C37.695 53.085 38.2224 53.6317 38.8729 53.6317C39.5234 53.6317 40.0508 53.085 40.0508 52.4107V49.9688H40.2773C42.7505 49.9688 44.7625 47.8832 44.7625 45.3196C44.7625 43.1822 43.3655 41.3274 41.3651 40.8091L36.952 39.6655C36.0023 39.4195 35.3391 38.5388 35.3391 37.5242C35.3391 36.3072 36.2944 35.317 37.4685 35.317H40.2773C41.4514 35.317 42.4067 36.3072 42.4067 37.5242V37.7589C42.4067 38.4332 42.9341 38.9799 43.5846 38.9799Z"/>
</mask>
<path d="M40.0508 32.875H37.5508V35.375H40.0508V32.875ZM37.695 32.875V35.375H40.195V32.875H37.695ZM36.3807 42.0347L37.0079 39.6146L37.0078 39.6146L36.3807 42.0347ZM40.7938 43.1783L40.1667 45.5983L40.1668 45.5984L40.7938 43.1783ZM32.9833 45.3196H35.4833H32.9833ZM37.695 49.9688H40.195V47.4688H37.695V49.9688ZM40.0508 49.9688V47.4688H37.5508V49.9688H40.0508ZM41.3651 40.8091L40.7379 43.2292L40.738 43.2292L41.3651 40.8091ZM36.952 39.6655L37.5791 37.2454L37.579 37.2454L36.952 39.6655ZM42.4067 37.7589L39.9067 37.7589L42.4067 37.7589ZM43.5846 41.4799C45.6996 41.4799 47.2625 39.7286 47.2625 37.7589H42.2625C42.2625 37.1379 42.7705 36.4799 43.5846 36.4799V41.4799ZM47.2625 37.7589V37.5242H42.2625V37.7589H47.2625ZM47.2625 37.5242C47.2625 33.6653 44.215 30.375 40.2773 30.375V35.375C41.2859 35.375 42.2625 36.2559 42.2625 37.5242H47.2625ZM40.2773 30.375H40.0508V35.375H40.2773V30.375ZM42.5508 32.875V30.433H37.5508V32.875H42.5508ZM42.5508 30.433C42.5508 28.4634 40.988 26.7121 38.8729 26.7121V31.7121C38.0588 31.7121 37.5508 31.0541 37.5508 30.433H42.5508ZM38.8729 26.7121C36.7578 26.7121 35.195 28.4634 35.195 30.433H40.195C40.195 31.0541 39.687 31.7121 38.8729 31.7121V26.7121ZM35.195 30.433V32.875H40.195V30.433H35.195ZM37.695 30.375H37.4685V35.375H37.695V30.375ZM37.4685 30.375C33.5308 30.375 30.4833 33.6653 30.4833 37.5242H35.4833C35.4833 36.2559 36.4599 35.375 37.4685 35.375V30.375ZM30.4833 37.5242C30.4833 40.7451 32.5976 43.637 35.7537 44.4548L37.0078 39.6146C36.1631 39.3957 35.4833 38.5779 35.4833 37.5242H30.4833ZM35.7536 44.4547L40.1667 45.5983L41.4209 40.7582L37.0079 39.6146L35.7536 44.4547ZM40.1668 45.5984C39.9606 45.5449 39.9067 45.3884 39.9067 45.3196H44.9067C44.9067 43.2215 43.5264 41.3036 41.4207 40.7582L40.1668 45.5984ZM39.9067 45.3196C39.9067 45.2651 39.9299 45.1989 39.983 45.1438C40.0376 45.0873 40.1423 45.0268 40.2773 45.0268V50.0268C42.9159 50.0268 44.9067 47.8319 44.9067 45.3196H39.9067ZM40.2773 45.0268H37.4685V50.0268H40.2773V45.0268ZM37.4685 45.0268C37.6035 45.0268 37.7082 45.0873 37.7628 45.1438C37.8159 45.1989 37.8391 45.2651 37.8391 45.3196H32.8391C32.8391 47.8319 34.8299 50.0268 37.4685 50.0268V45.0268ZM37.8391 45.3196V45.0848H32.8391V45.3196H37.8391ZM37.8391 45.0848C37.8391 43.1152 36.2763 41.3638 34.1612 41.3638V46.3638C33.3472 46.3638 32.8391 45.7059 32.8391 45.0848H37.8391ZM34.1612 41.3638C32.0462 41.3638 30.4833 43.1152 30.4833 45.0848H35.4833C35.4833 45.7059 34.9753 46.3638 34.1612 46.3638V41.3638ZM30.4833 45.0848V45.3196H35.4833V45.0848H30.4833ZM30.4833 45.3196C30.4833 49.1785 33.5308 52.4688 37.4685 52.4688V47.4688C36.4599 47.4688 35.4833 46.5878 35.4833 45.3196L30.4833 45.3196ZM37.4685 52.4688H37.695V47.4688H37.4685V52.4688ZM35.195 49.9688V52.4107H40.195V49.9688H35.195ZM35.195 52.4107C35.195 54.3804 36.7578 56.1317 38.8729 56.1317V51.1317C39.687 51.1317 40.195 51.7897 40.195 52.4107H35.195ZM38.8729 56.1317C40.988 56.1317 42.5508 54.3804 42.5508 52.4107H37.5508C37.5508 51.7897 38.0588 51.1317 38.8729 51.1317V56.1317ZM42.5508 52.4107V49.9688H37.5508V52.4107H42.5508ZM40.0508 52.4688H40.2773V47.4688H40.0508V52.4688ZM40.2773 52.4688C44.215 52.4688 47.2625 49.1785 47.2625 45.3196H42.2625C42.2625 46.5878 41.2859 47.4688 40.2773 47.4688V52.4688ZM47.2625 45.3196C47.2625 42.0986 45.1482 39.2068 41.9921 38.389L40.738 43.2292C41.5827 43.448 42.2625 44.2658 42.2625 45.3196H47.2625ZM41.9922 38.389L37.5791 37.2454L36.3249 42.0856L40.7379 43.2292L41.9922 38.389ZM37.579 37.2454C37.7852 37.2988 37.8391 37.4554 37.8391 37.5242H32.8391C32.8391 39.6223 34.2194 41.5401 36.3251 42.0856L37.579 37.2454ZM37.8391 37.5242C37.8391 37.5786 37.8159 37.6449 37.7628 37.7C37.7082 37.7565 37.6035 37.817 37.4685 37.817V32.817C34.8299 32.817 32.8391 35.0118 32.8391 37.5242H37.8391ZM37.4685 37.817H40.2773V32.817H37.4685V37.817ZM40.2773 37.817C40.1423 37.817 40.0376 37.7565 39.983 37.7C39.9299 37.6449 39.9067 37.5786 39.9067 37.5242H44.9067C44.9067 35.0118 42.9159 32.817 40.2773 32.817V37.817ZM39.9067 37.5242V37.7589H44.9067V37.5242H39.9067ZM39.9067 37.7589C39.9067 39.7286 41.4695 41.4799 43.5846 41.4799V36.4799C44.3986 36.4799 44.9067 37.1379 44.9067 37.7589L39.9067 37.7589Z" fill="white" mask="url(#path-5-inside-1_43_30)"/>
<path d="M1.03711 50.0763C1.03711 49.7819 1.1066 49.5614 1.17239 49.438H24.316C24.3818 49.5614 24.4513 49.7819 24.4513 50.0763V53.8531C24.4513 54.1475 24.3818 54.368 24.316 54.4915H1.17239C1.1066 54.368 1.03711 54.1475 1.03711 53.8531V50.0763ZM24.259 49.3521C24.2591 49.3519 24.2609 49.3537 24.2646 49.358C24.2608 49.3545 24.259 49.3523 24.259 49.3521ZM24.259 54.5773C24.259 54.5771 24.2608 54.575 24.2646 54.5714C24.2609 54.5758 24.2591 54.5775 24.259 54.5773ZM1.22941 54.5773C1.22937 54.5775 1.22749 54.5758 1.22387 54.5714C1.22764 54.575 1.22945 54.5771 1.22941 54.5773ZM1.22387 49.358C1.22749 49.3537 1.22937 49.3519 1.22941 49.3521C1.22945 49.3523 1.22764 49.3545 1.22387 49.358Z" stroke="white" stroke-width="2.5"/>
<path d="M1.03711 58.1988C1.03711 57.854 1.11609 57.5928 1.193 57.4466H24.2954C24.3723 57.5928 24.4513 57.854 24.4513 58.1988V62.2031C24.4513 62.5478 24.3723 62.809 24.2954 62.9552H1.193C1.11609 62.809 1.03711 62.5478 1.03711 62.2031V58.1988ZM24.2317 57.3494C24.2318 57.349 24.2348 57.3518 24.2406 57.359C24.2345 57.3534 24.2317 57.3498 24.2317 57.3494ZM24.2317 63.0525C24.2317 63.052 24.2345 63.0484 24.2406 63.0428C24.2348 63.0501 24.2318 63.0529 24.2317 63.0525ZM1.25668 63.0525C1.2566 63.0529 1.25358 63.0501 1.24786 63.0428C1.2539 63.0484 1.25676 63.0521 1.25668 63.0525ZM1.24786 57.359C1.25358 57.3518 1.2566 57.349 1.25668 57.3494C1.25676 57.3498 1.2539 57.3534 1.24786 57.359Z" stroke="white" stroke-width="2.5"/>
<path d="M1.03711 42.1815C1.03711 41.8341 1.11938 41.5725 1.19804 41.4293H24.7193C24.7979 41.5725 24.8802 41.8341 24.8802 42.1815V46.1858C24.8802 46.5331 24.7979 46.7947 24.7193 46.938H1.19804C1.11938 46.7947 1.03711 46.5331 1.03711 46.1858V42.1815ZM24.6589 41.3402C24.659 41.3398 24.6619 41.3424 24.6673 41.3491C24.6616 41.3439 24.6589 41.3406 24.6589 41.3402ZM24.6589 47.027C24.6589 47.0267 24.6616 47.0234 24.6673 47.0182C24.6619 47.0248 24.659 47.0274 24.6589 47.027ZM1.25838 47.027C1.25831 47.0274 1.25546 47.0248 1.25003 47.0182C1.25575 47.0234 1.25846 47.0267 1.25838 47.027ZM1.25003 41.3491C1.25546 41.3424 1.25831 41.3398 1.25838 41.3402C1.25846 41.3406 1.25575 41.3439 1.25003 41.3491Z" stroke="white" stroke-width="2.5"/>
<path d="M5.02906 45.296H2.93228" stroke="white" stroke-width="2.5"/>
<path d="M13.4161 45.296H11.3194" stroke="white" stroke-width="2.5"/>
<path d="M19.7065 45.296H17.6097" stroke="white" stroke-width="2.5"/>
<path d="M23.9 45.296H21.8033" stroke="white" stroke-width="2.5"/>
<path d="M22.8516 53.0821H20.7548" stroke="white" stroke-width="2.5"/>
<path d="M18.6581 53.0821H16.5613" stroke="white" stroke-width="2.5"/>
<path d="M14.4645 53.0821H12.3678" stroke="white" stroke-width="2.5"/>
<path d="M10.271 53.0821H8.17421" stroke="white" stroke-width="2.5"/>
<path d="M6.07744 53.0821H3.98067" stroke="white" stroke-width="2.5"/>
<path d="M6.07744 61.9806H3.98067" stroke="white" stroke-width="2.5"/>
<path d="M10.271 61.9806H8.17421" stroke="white" stroke-width="2.5"/>
<path d="M14.4645 61.9806H12.3678" stroke="white" stroke-width="2.5"/>
<path d="M18.6581 61.9806H16.5613" stroke="white" stroke-width="2.5"/>
<path d="M22.8516 61.9806H20.7548" stroke="white" stroke-width="2.5"/>
<path d="M9.22261 45.296H7.12584" stroke="white" stroke-width="2.5"/>
</svg>
