<svg width="65" height="78" viewBox="0 0 65 78" fill="none" xmlns="http://www.w3.org/2000/svg">
<path d="M32.5 74.2083C25.3171 74.2083 18.4283 72.2109 13.3492 68.6556C8.27008 65.1002 5.41667 60.2781 5.41667 55.25C5.41667 47.8335 9.15417 38.9989 14.8525 32.045C17.6908 28.5832 20.8758 25.7584 24.0825 23.8398C27.3217 21.9061 30.1817 21.125 32.5 21.125C34.8183 21.125 37.6783 21.9061 40.9175 23.8398C44.1242 25.7584 47.3092 28.5832 50.1475 32.045C55.8458 38.9989 59.5833 47.8335 59.5833 55.25C59.5833 60.2781 56.7299 65.1002 51.6508 68.6556C46.5717 72.2109 39.6829 74.2083 32.5 74.2083ZM32.5 78C41.1195 78 49.386 75.6031 55.481 71.3367C61.5759 67.0702 65 61.2837 65 55.25C65 38.8927 48.75 17.3333 32.5 17.3333C16.25 17.3333 0 38.8927 0 55.25C0 61.2837 3.4241 67.0702 9.51903 71.3367C15.614 75.6031 23.8805 78 32.5 78Z" fill="#F8F8F8"/>
<path d="M33.33 45.5481C28.4987 44.4118 26.945 43.237 26.945 41.4074C26.945 39.3081 29.0946 37.8444 32.6915 37.8444C36.48 37.8444 37.8847 39.4815 38.0124 41.8889H42.7161C42.5671 38.5763 40.3323 35.5333 35.8841 34.5511V30.3333H29.499V34.4933C25.37 35.3022 22.0498 37.7289 22.0498 41.4459C22.0498 45.8948 26.1149 48.1096 32.053 49.4C37.3739 50.5555 38.4381 52.2504 38.4381 54.0415C38.4381 55.3704 37.3952 57.4889 32.6915 57.4889C28.3071 57.4889 26.5832 55.717 26.349 53.4444H21.6667C21.9221 57.6622 25.4126 60.0311 29.499 60.8207V65H35.8841V60.8592C40.0344 60.1467 43.3333 57.9704 43.3333 54.0222C43.3333 48.5526 38.1614 46.6844 33.33 45.5481Z" fill="#F8F8F8"/>
<path d="M20.5833 21.6667L12.12 10.8382C10.7169 9.04294 11.996 6.41975 14.2745 6.41975V6.41975L31.098 8.55967L42.227 6.43629C42.2847 6.42529 42.3413 6.40923 42.3961 6.3883L53.4485 2.1708C53.5021 2.15032 53.5526 2.12222 53.5983 2.08736V2.08736C54.132 1.68003 54.829 2.32492 54.4642 2.88862L42.3137 21.6667" stroke="white" stroke-width="3.5"/>
</svg>
