<svg width="35" height="40" viewBox="0 0 35 40" fill="none" xmlns="http://www.w3.org/2000/svg">
<path fill-rule="evenodd" clip-rule="evenodd" d="M25.3969 23.97C24.9623 23.7217 22.8317 22.525 22.435 22.3584C22.0383 22.1934 21.7496 22.1117 21.4594 22.6084C21.1706 23.1017 20.3408 24.2184 20.0885 24.5484C19.8348 24.88 19.5825 24.92 19.1494 24.6734C18.7162 24.4234 17.3192 23.9017 15.664 22.215C14.3762 20.9017 13.5056 19.28 13.2533 18.7834C13.001 18.2884 13.2256 18.02 13.4429 17.7734C13.6383 17.5517 13.876 17.195 14.0933 16.9067C14.3106 16.6167 14.3821 16.41 14.5265 16.0784C14.6723 15.7484 14.5994 15.46 14.49 15.2117C14.3821 14.9634 13.5158 12.525 13.1542 11.5334C12.8027 10.5684 12.4454 10.7 12.18 10.6834C11.9262 10.67 11.6375 10.6667 11.3487 10.6667C11.06 10.6667 10.5904 10.79 10.1937 11.2867C9.79562 11.7817 8.67708 12.98 8.67708 15.4184C8.67708 17.855 10.2287 20.21 10.446 20.5417C10.6633 20.8717 13.5012 25.875 17.8485 28.02C18.884 28.53 19.6904 28.835 20.319 29.0617C21.3573 29.44 22.3023 29.3867 23.049 29.2584C23.8802 29.1167 25.6127 28.06 25.9744 26.9034C26.3346 25.7467 26.3346 24.755 26.2267 24.5484C26.1187 24.3417 25.83 24.2184 25.3954 23.97H25.3969ZM17.4898 36.3084H17.484C14.9019 36.3089 12.3672 35.5156 10.1456 34.0117L9.62062 33.655L4.16354 35.2917L5.62042 29.2117L5.27771 28.5884C3.83416 25.9623 3.07022 22.923 3.07417 19.8217C3.07708 10.7384 9.54333 3.34836 17.4956 3.34836C21.3456 3.34836 24.9652 5.06503 27.6865 8.17836C29.0287 9.706 30.0925 11.5226 30.8164 13.5232C31.5404 15.5237 31.91 17.6685 31.904 19.8334C31.901 28.9167 25.4348 36.3084 17.4898 36.3084V36.3084ZM29.7573 5.81336C28.1505 3.9649 26.2387 2.49926 24.1326 1.50136C22.0266 0.50347 19.7682 -0.00683189 17.4883 3.01489e-05C7.93042 3.01489e-05 0.14875 8.8917 0.145833 19.82C0.141404 23.2979 0.939713 26.7157 2.46021 29.7284L0 40L9.19333 37.2434C11.7365 38.8269 14.5864 39.6566 17.4825 39.6567H17.4898C27.0477 39.6567 34.8294 30.765 34.8323 19.835C34.8393 17.2305 34.3944 14.6502 33.5233 12.2434C32.6522 9.83664 31.3722 7.65115 29.7573 5.81336" fill="#F8F8F8"/>
</svg>
